<?xml version="1.0" encoding="UTF-8"?>
<svg id="Camada_1" xmlns="http://www.w3.org/2000/svg" version="1.1" viewBox="0 0 1024 1024">
	<!-- Generator: Adobe Illustrator 29.6.1, SVG Export Plug-In . SVG Version: 2.1.1 Build 9)  -->
	<defs>
		<style>
			.st0 {
				fill: #0c979e;
			}

			.st1 {
				fill: #f48d76;
			}

			.st2 {
				fill: #0c989d;
			}
		</style>
	</defs>
	<path class="st2"
		d="M692.3,477.7c-1.4-18.4-6-32.1-7.8-37.2-6.5-18.6-17.8-51.2-46.7-80.2-53.7-53.8-125.6-52.3-133-52-12.7.5-63.5,3.7-109.2,42.3-4.9,4.1-38.3,33.1-53.6,78.3-5.4,15.9-7.4,30.6-8.5,38.8-2.7,19.9-4,30,0,41.4,1.1,3.3,7.7,22.3,25.8,30.1,10.2,4.4,19.3,3.3,33.3,1.6,18.3-2.3,19.4-6.5,38.7-9.4,4.5-.7,2.6-.2,34.8-2,20.9-1.2,22.5-1.4,30.5-1.6,9.6-.2,16.7,0,30.9.4,14.1.4,21.2.6,29.3,1.2,16.6,1.2,16.2,2.2,34.4,3.5,9.9.7,13,.7,19.6,2,11.1,2.2,12.2,4.4,20.7,6.3,4.9,1.1,18.2,3.7,32.5-2,3.2-1.3,13.8-5.7,21.4-16.4,9.2-13.1,8.2-27.6,6.9-45ZM624.4,474.6c-11.2,24.8-38.1,31.6-39.4,31.9-12.2,2.8-15.6-1-37.2-3.5-25.8-3-49.7-.9-81.4,2-18.7,1.7-28.6,3.4-40.7-2.3-13.4-6.4-20.5-17.6-22.2-20.5-6.2-10.5-7-20.1-7.6-28-1.4-18.4,3.6-32.5,6.3-39.9,1.9-5.2,8.1-21.2,22.3-36.8,29.6-32.7,70-37.4,75.9-38,6.5-.6,49.6-4.3,86.5,25.4,6.2,5,23.9,20.4,34.4,46.2,2.6,6.4,7.4,18.5,7.6,34.9.1,8.3.3,18-4.6,28.7Z" />
	<g>
		<path class="st0"
			d="M435.5,528.8c.7,6.4,1.2,15.2,0,25.4-1.8,16-6.6,28-9.4,34-4,8.8-10,17-21.9,33.3-13.3,18.2-14.2,17.5-17.6,24.3-2.7,5.4-9.8,19.9-8.2,39.5.5,6.1,2,22.1,14.1,37.2,12,15,28.9,23.4,30.9,21.1,1.9-2.1-11.1-11-18.4-30.9-2.2-6-8.2-22.2-3.1-39.5,1.8-6.3,4.1-9.1,24.3-33.7,22.1-26.9,22.5-27.2,24.3-30.1,11.6-19.1,15-37.3,16.8-47.3,2.4-13.5,2.6-25,2.3-33.3" />
		<path class="st0"
			d="M594.5,530c-.8,6-1.4,14.7,0,25,.5,4,2.5,16.3,9.9,31.2,6.2,12.4,9.5,13.1,18.8,27.1,8.2,12.3,17,25.4,20.9,44,1.7,8.1,5.1,23.8-1.1,40.1-2.6,6.7-7.1,14.3-7.9,15.7-5.2,8.8-7.5,10.2-13,19.6-3.6,6.1-6.1,10.4-8.2,16.8-3.6,10.9-2.6,17.8-4.2,18-2,.2-6.6-10.4-6.3-22.3.3-11.6,5.2-15.4,11-30.9,4.2-11.3,8.4-22.6,7.4-36-1-13.4-6.8-22.9-14.5-35.6-10.1-16.6-14.1-16-25.4-33.3-5.8-8.9-13.4-20.7-18-37.2-2.6-9.1-5.6-24.5-3.1-44.2" />
		<path class="st0"
			d="M499.7,526.1c-.5,9.2-.7,21.2.6,35.1,1.1,11.5,2.7,29.2,10.1,49.5,7.8,21.5,14.2,24.2,25.1,50.4,4.7,11.1,9.4,19.9,11.2,32.8.4,3.1,1.5,12.3,0,24.4-1.5,11.6-4.6,20.2-10.1,34.9-4.5,12.2-6.5,15.4-8,24.1-1.3,7.2-1.5,14.3.9,21.7,1.6,5.1,4.9,11.5,6.8,11.1,2.1-.5.4-8.8,2.8-20,1-4.5,2.3-7.6,9.4-21.3,12-23.1,12.5-22,15.8-29.8,2.9-7,6.7-16.2,8.1-28.9,1.4-12.7-.4-22.5-2-31-.7-3.6-2.5-12.3-12.1-36-10.9-26.9-13.4-27.7-18.1-43.1-4.3-14.1-5.8-25.6-6.9-33.9-2.1-15.7-2.4-29.3-2.1-39.8" />
		<path class="st0"
			d="M491.1,620.3c-1.4-1.1-10.1,6.5-17,16-3.6,5-10.5,14.9-12.8,29.8-2,13,.5,23.2,1.2,25.9,2.3,8.8,4.8,9.9,8.9,23.1,1.5,4.7,3.1,10.3,4.1,18,.6,4.5,1.5,12.2,0,22-1.2,7.8-3.4,13.6-4,15.2-3.9,10-8.2,14.3-7,15.7,1.5,1.6,8.9-2.7,13.9-6.8,1.2-1,7.1-6,12.1-15.1,3.9-7.2,5.3-13.5,6-17,1-4.7,2.2-12.9.8-22.9-.7-5.1-2.8-11.5-7.2-24.1-4.3-12.4-5.3-13.2-6.9-20.1-2.2-9.6-2.2-16.4-2.1-19.2.1-4.6.7-8.3,1.1-10.8.9-5.8,2.1-10.4,2.9-13,3.3-11.3,6.9-15.9,5.9-16.6Z" />
	</g>
	<g>
		<circle class="st1" cx="445.2" cy="461.9" r="34" />
		<circle class="st1" cx="581.3" cy="461.9" r="34" />
		<circle class="st1" cx="513.3" cy="391.4" r="34" />
	</g>
</svg>